<svg height="512pt" viewBox="0 -87 512 512" width="512pt" xmlns="http://www.w3.org/2000/svg"><path d="m512 66.441406v205.660156l-11.5 2.757813c-22.039062 5.289063-39.371094 25.269531-44.160156 50.890625l-2.28125 12.25h-396.117188l-2.28125-12.25c-4.789062-25.621094-22.121094-45.601562-44.160156-50.890625l-11.5-2.757813v-205.660156l11.5-2.761718c22.210938-5.328126 39.578125-25.480469 44.25-51.339844l2.230469-12.339844h396.039062l2.230469 12.339844c4.671875 25.859375 22.039062 46.011718 44.25 51.339844zm0 0" fill="#f8ba00"/><path d="m512 66.441406v205.660156l-11.5 2.757813c-22.039062 5.289063-39.371094 25.269531-44.160156 50.890625l-2.28125 12.25h-198.109375v-338h198.070312l2.230469 12.339844c4.671875 25.859375 22.039062 46.011718 44.25 51.339844zm0 0" fill="#fb9103"/><path d="m94.363281 62.757812h72.269531v212.484376h-72.269531zm0 0" fill="#f2dba2"/><path d="m196.628906 62.761719h118.742188v212.476562h-118.742188zm0 0" fill="#f2dba2"/><g fill="#e8d06c"><path d="m345.367188 62.757812h72.269531v212.484376h-72.269531zm0 0"/><path d="m255.949219 62.761719h59.421875v212.476562h-59.421875zm0 0"/></g></svg>